<mxfile host="app.diagrams.net" modified="2024-03-23T23:23:53.402Z" agent="Mozilla/5.0 (Windows NT 10.0; Win64; x64) AppleWebKit/537.36 (KHTML, like Gecko) Chrome/122.0.0.0 Safari/537.36 Edg/122.0.0.0" version="24.0.7" etag="eQ5hKVA3vGt-hbyB3RtE" type="github">
  <diagram name="Страница — 1" id="GM2e-rEpNRRbhRvI7l0u">
    <mxGraphModel>
      <root>
        <mxCell id="0" />
        <mxCell id="1" parent="0" />
      </root>
    </mxGraphModel>
  </diagram>
</mxfile>
